<?xml version="1.0" encoding="UTF-8" standalone="no"?>
<svg
   xml:space="preserve"
   id="Layer_1"
   width="71.412064"
   height="50"
   x="0"
   y="0"
   version="1.1"
   viewBox="0 0 71.412065 50"
   sodipodi:docname="yousuck_color.svg"
   inkscape:version="1.1.1 (3bf5ae0d25, 2021-09-20)"
   xmlns:inkscape="http://www.inkscape.org/namespaces/inkscape"
   xmlns:sodipodi="http://sodipodi.sourceforge.net/DTD/sodipodi-0.dtd"
   xmlns:xlink="http://www.w3.org/1999/xlink"
   xmlns="http://www.w3.org/2000/svg"
   xmlns:svg="http://www.w3.org/2000/svg"><defs
   id="defs9"><linearGradient
   inkscape:collect="always"
   id="linearGradient30066"><stop
     style="stop-color:#00ffff;stop-opacity:1"
     offset="0"
     id="stop30062" /><stop
     style="stop-color:#ff9f00;stop-opacity:1"
     offset="0.53162032"
     id="stop30810" /><stop
     style="stop-color:#ff0096;stop-opacity:1"
     offset="1"
     id="stop30064" /></linearGradient>
    
    
  <linearGradient
   inkscape:collect="always"
   xlink:href="#linearGradient30066"
   id="linearGradient30134"
   gradientUnits="userSpaceOnUse"
   x1="0"
   y1="0"
   x2="71.412064"
   y2="50" /></defs><sodipodi:namedview
   id="namedview7"
   pagecolor="#505050"
   bordercolor="#eeeeee"
   borderopacity="1"
   inkscape:pageshadow="0"
   inkscape:pageopacity="0"
   inkscape:pagecheckerboard="0"
   showgrid="false"
   inkscape:snap-bbox="true"
   inkscape:snap-bbox-midpoints="true"
   inkscape:zoom="5.6568543"
   inkscape:cx="68.766134"
   inkscape:cy="25.013902"
   inkscape:window-width="1920"
   inkscape:window-height="1057"
   inkscape:window-x="-8"
   inkscape:window-y="-8"
   inkscape:window-maximized="1"
   inkscape:current-layer="Layer_1"
   inkscape:bbox-paths="false"
   inkscape:snap-page="true"
   inkscape:object-nodes="false"
   inkscape:bbox-nodes="true" />
  <style
   id="style3"
   type="text/css">
    .st2{fill:#282828}
  </style>
  <path
   id="path7"
   style="fill:url(#linearGradient30134);stroke-width:0.58824;fill-opacity:1"
   d="m 35.704734,0 c 0,0 -22.353125,1.03225e-4 -27.9414061,1.4707031 C 4.7633039,2.2942391 2.2938951,4.7653708 1.4703591,7.8242188 -2.4084623e-4,13.412499 -3.439539e-4,25 -3.439539e-4,25 c 0,0 1.0310767e-4,11.648278 1.4707030539,17.177734 0.823536,3.058848 3.2341208,5.469433 6.2929688,6.292969 C 13.410433,50.000127 35.704734,50 35.704734,50 c 0,0 22.353127,-1.03e-4 27.941406,-1.470703 3.058849,-0.823536 5.471385,-3.234121 6.294922,-6.292969 1.470599,-5.58828 1.470703,-17.177734 1.470703,-17.177734 0,0 0.05872,-11.646095 -1.470703,-17.2343752 C 69.117525,4.7653708 66.704989,2.3528329 63.64614,1.5292969 58.057861,-1.27025e-4 35.704734,0 35.704734,0 Z m -0.630859,6.921875 a 4.0983965,4.0983965 0 0 1 4.697265,4.482422 l -1.583984,15.880859 a 2.4997954,2.4997954 0 0 1 -4.982422,0 L 31.62075,11.404297 a 4.0983965,4.0983965 0 0 1 3.453125,-4.482422 z m 0.08594,27.179687 a 4.5286149,4.5286149 0 0 1 5.074219,4.496094 4.5286149,4.5286149 0 0 1 -9.056641,0 4.5286149,4.5286149 0 0 1 3.982422,-4.496094 z" />
<text
   xml:space="preserve"
   style="font-style:normal;font-weight:normal;font-size:40px;line-height:1.25;font-family:sans-serif;fill:#000000;fill-opacity:1;stroke:none"
   x="52.060738"
   y="20.506098"
   id="text15440"><tspan
     sodipodi:role="line"
     id="tspan15438"
     x="52.060738"
     y="20.506098" /></text></svg>
